<svg width="28" height="32" viewBox="0 0 28 32" fill="none" xmlns="http://www.w3.org/2000/svg">
    <path d="M22.9761 16.9109C22.9607 14.2879 24.1491 12.3111 26.549 10.8534C25.2067 8.93042 23.176 7.87277 20.4992 7.66893C17.9647 7.46894 15.1917 9.1458 14.1764 9.1458C13.1034 9.1458 10.6496 7.73816 8.71891 7.73816C4.73445 7.7997 0.5 10.915 0.5 17.2532C0.5 19.1262 0.842294 21.0607 1.52688 23.053C2.44223 25.6759 5.7421 32.1026 9.18428 31.9988C10.9842 31.9564 12.2572 30.7219 14.5995 30.7219C16.8724 30.7219 18.0493 31.9988 20.0569 31.9988C23.5299 31.9488 26.5144 26.1067 27.3836 23.476C22.7261 21.2799 22.9761 17.0455 22.9761 16.9109ZM18.9339 5.18057C20.8838 2.86527 20.7069 0.757663 20.6492 0C18.9262 0.0999961 16.934 1.17303 15.7994 2.49221C14.5495 3.90754 13.8149 5.65747 13.9726 7.63047C15.834 7.77277 17.534 6.81512 18.9339 5.18057Z" fill="#818181"/>
</svg>