<svg width="33" height="32" viewBox="0 0 33 32" fill="none" xmlns="http://www.w3.org/2000/svg">
    <path d="M6.68285 0C3.44608 0 0.839844 2.60624 0.839844 5.84301V26.157C0.839844 29.3938 3.44608 32 6.68285 32H17.6929V19.49H14.3849V14.986H17.6929V11.138C17.6929 8.11482 19.6474 5.33901 24.1499 5.33901C25.9728 5.33901 27.3209 5.51402 27.3209 5.51402L27.2149 9.72003C27.2149 9.72003 25.84 9.70704 24.3398 9.70704C22.7162 9.70704 22.4558 10.4551 22.4558 11.6971V14.986H27.3438L27.1309 19.49H22.4558V32.0001H26.9968C30.2336 32.0001 32.8398 29.3938 32.8398 26.1571V5.84304C32.8398 2.60627 30.2336 3.2e-05 26.9968 3.2e-05H6.68282L6.68285 0Z" fill="#818181"/>
</svg>