<svg width="33" height="32" viewBox="0 0 33 32" fill="none" xmlns="http://www.w3.org/2000/svg">
    <path d="M29.8595 13.389H28.7855V13.3337H16.7855V18.667H24.3208C23.2215 21.7717 20.2675 24.0003 16.7855 24.0003C12.3675 24.0003 8.78548 20.4183 8.78548 16.0003C8.78548 11.5823 12.3675 8.00033 16.7855 8.00033C18.8248 8.00033 20.6801 8.76966 22.0928 10.0263L25.8641 6.25499C23.4828 4.03566 20.2975 2.66699 16.7855 2.66699C9.42215 2.66699 3.45215 8.63699 3.45215 16.0003C3.45215 23.3637 9.42215 29.3337 16.7855 29.3337C24.1488 29.3337 30.1188 23.3637 30.1188 16.0003C30.1188 15.1063 30.0268 14.2337 29.8595 13.389Z" fill="#FFC107"/>
    <path d="M4.98926 9.79433L9.36992 13.007C10.5553 10.0723 13.4259 8.00033 16.7853 8.00033C18.8246 8.00033 20.6799 8.76966 22.0926 10.0263L25.8639 6.25499C23.4826 4.03566 20.2973 2.66699 16.7853 2.66699C11.6639 2.66699 7.22259 5.55833 4.98926 9.79433Z" fill="#FF3D00"/>
    <path d="M16.785 29.3328C20.229 29.3328 23.3584 28.0148 25.7244 25.8715L21.5977 22.3795C20.2141 23.4317 18.5233 24.0009 16.785 23.9995C13.317 23.9995 10.3724 21.7881 9.26304 18.7021L4.91504 22.0521C7.12171 26.3701 11.603 29.3328 16.785 29.3328Z" fill="#4CAF50"/>
    <path d="M29.8592 13.3883H28.7852V13.333H16.7852V18.6663H24.3205C23.7946 20.144 22.8474 21.4351 21.5958 22.3803L21.5978 22.379L25.7245 25.871C25.4325 26.1363 30.1185 22.6663 30.1185 15.9997C30.1185 15.1057 30.0265 14.233 29.8592 13.3883Z" fill="#1976D2"/>
</svg>